<?xml version="1.0" encoding="UTF-8" standalone="no"?>
<!DOCTYPE svg PUBLIC "-//W3C//DTD SVG 1.1//EN" "http://www.w3.org/Graphics/SVG/1.1/DTD/svg11.dtd">
<svg width="100%" height="100%" viewBox="0 0 1000 1000" version="1.1" xmlns="http://www.w3.org/2000/svg" xmlns:xlink="http://www.w3.org/1999/xlink" xml:space="preserve" xmlns:serif="http://www.serif.com/" style="fill-rule:evenodd;clip-rule:evenodd;stroke-linejoin:round;stroke-miterlimit:2;">
    <g transform="matrix(1.21869,0,0,1.21869,-63.3007,-0.19831)">
        <path d="M462.214,223.636C359.645,223.636 275.243,308.038 275.243,410.607C275.243,513.176 359.645,597.578 462.214,597.578C564.783,597.578 649.185,513.176 649.185,410.607C649.063,308.084 564.737,223.758 462.214,223.636Z" style="fill:rgb(71,138,255);fill-rule:nonzero;"/>
        <circle cx="730.671" cy="155.043" r="85.169" style="fill:rgb(71,138,255);"/>
        <path d="M835.542,240.659L831.97,232.845L826.389,239.319C812.427,255.162 794.769,267.318 774.986,274.704L769.405,276.714L771.637,282.295C788.606,323.103 797.342,366.867 797.342,411.063C797.342,595.044 645.948,746.438 461.967,746.438C277.985,746.438 126.591,595.044 126.591,411.063C126.591,227.081 277.985,75.687 461.967,75.687C511.727,75.687 560.869,86.761 605.819,108.105L611.065,110.616L613.354,105.035C621.694,85.637 634.693,68.592 651.194,55.418L657.892,49.837L650.245,45.874C592.16,15.685 527.621,0 462.158,0.164C237.11,0.196 51.941,185.391 51.941,410.44C51.941,635.51 237.147,820.715 462.217,820.715C687.288,820.715 872.493,635.51 872.493,410.44C872.493,351.686 859.872,293.611 835.486,240.157L835.542,240.659Z" style="fill:rgb(71,138,255);fill-rule:nonzero;"/>
    </g>
</svg>
