<?xml version="1.0" encoding="UTF-8" standalone="no"?>
<!DOCTYPE svg PUBLIC "-//W3C//DTD SVG 1.1//EN" "http://www.w3.org/Graphics/SVG/1.1/DTD/svg11.dtd">
<svg width="100%" height="100%" viewBox="0 0 2500 2500" version="1.1" xmlns="http://www.w3.org/2000/svg" xmlns:xlink="http://www.w3.org/1999/xlink" xml:space="preserve" xmlns:serif="http://www.serif.com/" style="fill-rule:evenodd;clip-rule:evenodd;stroke-linejoin:round;stroke-miterlimit:2;">
    <g>
        <g transform="matrix(1.41298,0,0,1.41298,-546.819,71.5829)">
            <path d="M1324.67,1185.05C1149.13,1191.88 959.944,1158.84 800.39,1079.05L833.437,1026.62C988.439,1099.56 1166.24,1124.65 1324.67,1117.8C1324.67,1123.49 1331.48,1010.66 1341.74,949.114L1103.55,949.114C1125.19,700.653 1201.56,479.544 1315.54,291.495L603.211,291.495L603.211,1376.52L1351.99,1376.52C1334.9,1311.54 1324.67,1182.77 1324.67,1185.05Z" style="fill:rgb(208,233,251);"/>
        </g>
        <g transform="matrix(1.41298,0,0,1.41298,-546.819,71.5829)">
            <path d="M1396.45,1113.23C1526.39,1100.69 1640.35,1066.5 1709.88,1022.06L1750.92,1074.48C1655.16,1130.34 1530.94,1166.8 1396.45,1180.48C1399.88,1247.73 1410.14,1311.54 1427.23,1376.52L1940.1,1376.52L1940.1,291.495L1394.17,291.495C1277.92,469.298 1211.82,667.606 1186.75,877.314L1431.8,877.314C1411.27,957.091 1398.74,1035.74 1396.45,1113.23ZM926.884,455.615L996.415,455.615L996.415,616.323L926.884,616.323L926.884,455.615Z" style="fill:rgb(0,172,236);"/>
        </g>
        <g transform="matrix(1.41298,0,0,1.41298,-546.819,71.5829)">
            <rect x="1505.86" y="455.615" width="69.544" height="160.708"/>
        </g>
        <g transform="matrix(1.41298,0,0,1.41298,-546.819,71.5829)">
            <path d="M1396.45,1113.23C1526.39,1100.69 1640.35,1066.5 1709.88,1022.06L1750.92,1074.48C1655.16,1130.34 1530.94,1166.8 1396.45,1180.48C1402.15,1301.28 1431.8,1420.95 1491.04,1536.07L1431.8,1567.97C1323.53,1397.03 1304.15,1166.8 1341.75,949.114L1103.55,949.114C1133.18,610.617 1263.1,323.401 1452.3,100.023L1503.57,144.47C1318.96,358.744 1217.52,608.347 1186.75,877.314L1431.8,877.314C1411.27,957.091 1398.74,1035.74 1396.45,1113.23Z"/>
        </g>
        <g transform="matrix(1.41298,0,0,1.41298,-546.819,71.5829)">
            <path d="M1324.67,1117.8L1324.67,1185.05C1149.13,1191.88 959.944,1158.84 800.39,1079.05L833.437,1026.62C988.426,1099.56 1166.23,1124.63 1324.67,1117.8Z" style="fill:rgb(0,172,236);"/>
        </g>
    </g>
</svg>
